<?xml version="1.0" encoding="UTF-8"?>
<svg id="Layer_2" data-name="Layer 2" xmlns="http://www.w3.org/2000/svg" viewBox="0 0 19.43 24.88">
  <defs>
    <style>
      .cls-1 {
        fill: #fff;
      }
    </style>
  </defs>
  <g id="Layer_1-2" data-name="Layer 1">
    <path class="cls-1" d="M18.71,22.88c0-.4.32-.72.72-.72v-.65c-.4,0-.72-.32-.72-.72s.32-.72.72-.72v-.65c-.4,0-.72-.32-.72-.72s.32-.72.72-.72v-.65c-.4,0-.72-.32-.72-.72s.32-.72.72-.72v-.65c-.4,0-.72-.32-.72-.72s.32-.72.72-.72v-.65c-.4,0-.72-.32-.72-.72s.32-.72.72-.72v-.65c-.4,0-.72-.32-.72-.72s.32-.72.72-.72v-.65c-.4,0-.72-.32-.72-.72s.32-.72.72-.72v-.65c-.4,0-.72-.32-.72-.72s.32-.72.72-.72v-.65c-.4,0-.72-.32-.72-.72s.32-.72.72-.72v-.65c-.4,0-.72-.32-.72-.72s.32-.72.72-.72v-.65c-.39,0-.7-.31-.72-.69h-.73c-.02.38-.33.69-.72.69s-.7-.31-.72-.69h-.73c-.02.38-.33.69-.72.69s-.7-.31-.72-.69h-.73c-.02.38-.33.69-.72.69s-.7-.31-.72-.69h-.73c-.02.38-.33.69-.72.69s-.7-.31-.72-.69h-.73c-.02.38-.33.69-.72.69s-.7-.31-.72-.69h-.73c-.02.38-.33.69-.72.69s-.7-.31-.72-.69h-.73c-.02.38-.33.69-.72.69s-.7-.31-.72-.69h-.73c-.02.38-.33.69-.72.69s-.7-.31-.72-.69h-.73C.7.38.39.69,0,.69c0,0,0,0,0,0v.65s0,0,0,0c.4,0,.72.32.72.72S.4,2.77,0,2.77c0,0,0,0,0,0v.65s0,0,0,0c.4,0,.72.32.72.72S.4,4.85,0,4.85c0,0,0,0,0,0v.65s0,0,0,0c.4,0,.72.32.72.72S.4,6.94,0,6.94c0,0,0,0,0,0v.65s0,0,0,0c.4,0,.72.32.72.72s-.32.72-.72.72c0,0,0,0,0,0v.65s0,0,0,0c.4,0,.72.32.72.72s-.32.72-.72.72c0,0,0,0,0,0v.65s0,0,0,0c.4,0,.72.32.72.72s-.32.72-.72.72c0,0,0,0,0,0v.65s0,0,0,0c.4,0,.72.32.72.72s-.32.72-.72.72c0,0,0,0,0,0v.65s0,0,0,0c.4,0,.72.32.72.72s-.32.72-.72.72c0,0,0,0,0,0v.65s0,0,0,0c.4,0,.72.32.72.72s-.32.72-.72.72c0,0,0,0,0,0v.65s0,0,0,0c.4,0,.72.32.72.72s-.32.72-.72.72c0,0,0,0,0,0v.65s0,0,0,0c.4,0,.72.32.72.72s-.32.72-.72.72c0,0,0,0,0,0v.65s0,0,0,0c.37,0,.67.28.71.64h.73c.04-.36.34-.64.71-.64s.67.28.71.64h.73c.04-.36.34-.64.71-.64s.67.28.71.64h.73c.04-.36.34-.64.71-.64s.67.28.71.64h.73c.04-.36.34-.64.71-.64s.67.28.71.64h.73c.04-.36.34-.64.71-.64s.67.28.71.64h.73c.04-.36.34-.64.71-.64s.67.28.71.64h.73c.04-.36.34-.64.71-.64s.67.28.71.64h.73c.04-.36.34-.64.71-.64s.67.28.71.64h.73c.04-.36.34-.64.71-.64v-.65c-.4,0-.72-.32-.72-.72Z"/>
  </g>
</svg>